<svg width="58" height="58" xmlns="http://www.w3.org/2000/svg" xmlns:xlink="http://www.w3.org/1999/xlink" xml:space="preserve" overflow="hidden"><defs><clipPath id="clip0"><rect x="30" y="80" width="58" height="58"/></clipPath><clipPath id="clip1"><rect x="31" y="81" width="56" height="57"/></clipPath><clipPath id="clip2"><rect x="31" y="81" width="56" height="57"/></clipPath><clipPath id="clip3"><rect x="31" y="81" width="56" height="57"/></clipPath></defs><g clip-path="url(#clip0)" transform="translate(-30 -80)"><g clip-path="url(#clip1)"><g clip-path="url(#clip2)"><g clip-path="url(#clip3)"><path d="M23.0417 24.7333 24.675 23.1C23.8583 22.225 23.3333 21.0583 23.3333 19.775 23.3333 18.4917 23.8583 17.325 24.675 16.45L23.0417 14.8167C21.7583 16.1 21 17.85 21 19.775 21 21.7 21.7583 23.45 23.0417 24.7333Z" fill="#000000" fill-rule="nonzero" fill-opacity="1" transform="matrix(1 0 0 1.01786 31 81)"/><path d="M19.775 28 21.4083 26.3667C19.7167 24.675 18.6667 22.3417 18.6667 19.775 18.6667 17.2083 19.7167 14.875 21.4083 13.1833L19.775 11.55C17.6167 13.65 16.3333 16.5667 16.3333 19.775 16.3333 22.9833 17.6167 25.9 19.775 28Z" fill="#000000" fill-rule="nonzero" fill-opacity="1" transform="matrix(1 0 0 1.01786 31 81)"/><path d="M18.0833 29.6917C15.575 27.1833 14 23.6833 14 19.775 14 15.8667 15.575 12.425 18.0833 9.85833L16.45 8.225C13.475 11.2 11.6667 15.2833 11.6667 19.775 11.6667 24.2667 13.475 28.35 16.45 31.325L18.0833 29.6917Z" fill="#000000" fill-rule="nonzero" fill-opacity="1" transform="matrix(1 0 0 1.01786 31 81)"/><path d="M32.9583 24.7333C34.2417 23.45 35 21.7 35 19.775 35 17.85 34.2417 16.1 32.9583 14.8167L31.325 16.45C32.1417 17.2667 32.6667 18.4333 32.6667 19.775 32.6667 21.1167 32.1417 22.225 31.325 23.1L32.9583 24.7333Z" fill="#000000" fill-rule="nonzero" fill-opacity="1" transform="matrix(1 0 0 1.01786 31 81)"/><path d="M34.5917 26.3667 36.225 28C38.3833 25.9 39.6667 22.9833 39.6667 19.775 39.6667 16.5667 38.3833 13.65 36.225 11.55L34.5917 13.1833C36.2833 14.875 37.3333 17.2083 37.3333 19.775 37.3333 22.3417 36.2833 24.675 34.5917 26.3667Z" fill="#000000" fill-rule="nonzero" fill-opacity="1" transform="matrix(1 0 0 1.01786 31 81)"/><path d="M37.9167 29.6917 39.55 31.325C42.525 28.35 44.3333 24.2667 44.3333 19.775 44.3333 15.2833 42.525 11.2 39.55 8.225L37.9167 9.85833C40.425 12.3667 42 15.8667 42 19.775 42 23.6833 40.425 27.125 37.9167 29.6917Z" fill="#000000" fill-rule="nonzero" fill-opacity="1" transform="matrix(1 0 0 1.01786 31 81)"/><path d="M43.1667 43.1083C42.525 43.1083 42 42.5833 42 41.9417 42 41.3 42.525 40.775 43.1667 40.775 43.8083 40.775 44.3333 41.3 44.3333 41.9417 44.3333 42.5833 43.8083 43.1083 43.1667 43.1083ZM37.3333 43.1083C36.6917 43.1083 36.1667 42.5833 36.1667 41.9417 36.1667 41.3 36.6917 40.775 37.3333 40.775 37.975 40.775 38.5 41.3 38.5 41.9417 38.5 42.5833 37.975 43.1083 37.3333 43.1083ZM31.5 43.1083C30.8583 43.1083 30.3333 42.5833 30.3333 41.9417 30.3333 41.3 30.8583 40.775 31.5 40.775 32.1417 40.775 32.6667 41.3 32.6667 41.9417 32.6667 42.5833 32.1417 43.1083 31.5 43.1083ZM25.6667 43.1083C25.025 43.1083 24.5 42.5833 24.5 41.9417 24.5 41.3 25.025 40.775 25.6667 40.775 26.3083 40.775 26.8333 41.3 26.8333 41.9417 26.8333 42.5833 26.3083 43.1083 25.6667 43.1083ZM14 44.275C12.7167 44.275 11.6667 43.225 11.6667 41.9417 11.6667 40.6583 12.7167 39.6083 14 39.6083 15.2833 39.6083 16.3333 40.6583 16.3333 41.9417 16.3333 43.225 15.2833 44.275 14 44.275ZM45.5 36.1083 29.1667 36.1083 29.1667 21.7583C29.8667 21.35 30.3333 20.5917 30.3333 19.775 30.3333 18.4917 29.2833 17.4417 28 17.4417 26.7167 17.4417 25.6667 18.4917 25.6667 19.775 25.6667 20.65 26.1333 21.4083 26.8333 21.7583L26.8333 36.1083 10.5 36.1083C9.21667 36.1083 8.16667 37.1583 8.16667 38.4417L8.16667 45.4417C8.16667 46.725 9.21667 47.775 10.5 47.775L45.5 47.775C46.7833 47.775 47.8333 46.725 47.8333 45.4417L47.8333 38.4417C47.8333 37.1583 46.7833 36.1083 45.5 36.1083Z" fill="#000000" fill-rule="nonzero" fill-opacity="1" transform="matrix(1 0 0 1.01786 31 81)"/></g></g></g></g></svg>