<svg width="56" height="57" xmlns="http://www.w3.org/2000/svg" xmlns:xlink="http://www.w3.org/1999/xlink" xml:space="preserve" overflow="hidden"><defs><clipPath id="clip0"><rect x="276" y="72" width="56" height="57"/></clipPath></defs><g clip-path="url(#clip0)" transform="translate(-276 -72)"><path d="M34.475 35.8167C34.475 35.875 34.4167 35.9333 34.4167 35.9333 34.4167 36.05 34.5333 36.1667 34.7083 36.1667L36.4583 36.1667C36.4 35.9333 36.4 35.7 36.5167 35.525L38.0917 33.0167 37.3917 31.85C37.3917 31.7917 37.3333 31.7917 37.3333 31.7917 37.2167 31.7333 37.0417 31.7333 36.9833 31.85L34.475 35.8167Z" fill="#FFFFFF" fill-rule="nonzero" fill-opacity="1" transform="matrix(1 0 0 1.01786 276 72)"/><path d="M37.1 36.1083C37.1583 36.1667 37.2167 36.225 37.3333 36.225L45.2667 36.225C45.3833 36.225 45.4417 36.1667 45.5 36.1083 45.5583 36.05 45.5583 35.9333 45.5 35.8167L41.5917 29.4C41.5333 29.3417 41.475 29.2833 41.3583 29.2833 41.3583 29.2833 41.3583 29.2833 41.3 29.2833 41.3 29.2833 41.3 29.2833 41.2417 29.2833 41.1833 29.2833 41.0667 29.3417 41.0083 29.4L37.1 35.8167C37.1 35.9333 37.1 35.9917 37.1 36.1083ZM39.725 33.0167 41.3 30.45 42.9333 33.075 41.8833 32.4333 41.2417 33.0167 40.6 32.4333 39.725 33.0167Z" fill="#FFFFFF" fill-rule="nonzero" fill-opacity="1" transform="matrix(1 0 0 1.01786 276 72)"/><path d="M44.2167 29.75C44.2167 30.0399 43.9816 30.275 43.6917 30.275 43.4017 30.275 43.1667 30.0399 43.1667 29.75 43.1667 29.4601 43.4017 29.225 43.6917 29.225 43.9816 29.225 44.2167 29.46 44.2167 29.75Z" fill="#FFFFFF" fill-rule="nonzero" fill-opacity="1" transform="matrix(1 0 0 1.01786 276 72)"/><path d="M33.8333 28.5833 46.0833 28.5833 46.0833 36.75 33.8333 36.75 33.8333 28.5833ZM32.0833 38.5 47.8333 38.5 47.8333 26.8333 32.0833 26.8333 32.0833 38.5Z" fill="#FFFFFF" fill-rule="nonzero" fill-opacity="1" transform="matrix(1 0 0 1.01786 276 72)"/><path d="M12.8333 22.1667 47.8333 22.1667 47.8333 24.5 12.8333 24.5Z" fill="#FFFFFF" fill-rule="nonzero" fill-opacity="1" transform="matrix(1 0 0 1.01786 276 72)"/><path d="M29.75 31.5 16.5667 31.5 18.6667 33.6 18.7833 33.8333 29.75 33.8333Z" fill="#FFFFFF" fill-rule="nonzero" fill-opacity="1" transform="matrix(1 0 0 1.01786 276 72)"/><path d="M12.8333 26.8333 12.8333 27.7083 14.2917 29.1667 29.75 29.1667 29.75 26.8333Z" fill="#FFFFFF" fill-rule="nonzero" fill-opacity="1" transform="matrix(1 0 0 1.01786 276 72)"/><path d="M20.3 38.5 29.75 38.5 29.75 36.1667 19.5417 36.1667Z" fill="#FFFFFF" fill-rule="nonzero" fill-opacity="1" transform="matrix(1 0 0 1.01786 276 72)"/><path d="M16.3333 35 16.975 37.0417 16.625 37.3917 14.5833 36.75C14.1167 36.2833 14.1167 35.525 14.5833 35.0583 15.05 34.5917 15.8083 34.5333 16.3333 35ZM3.79167 27.2417 14.1167 37.5667 18.6667 39.0833 17.15 34.5333 6.825 24.2083 3.79167 27.2417Z" fill="#FFFFFF" fill-rule="nonzero" fill-opacity="1" transform="matrix(1 0 0 1.01786 276 72)"/><path d="M1.4 23.625C1.05 23.975 1.10833 24.5583 1.45833 24.9083L3.15 26.6 6.18333 23.5667 4.49167 21.875C4.14167 21.525 3.5 21.525 3.15 21.875L1.45833 23.5667C1.4 23.5667 1.4 23.625 1.4 23.625Z" fill="#FFFFFF" fill-rule="nonzero" fill-opacity="1" transform="matrix(1 0 0 1.01786 276 72)"/><path d="M7 9.91667 7 21.875 10.5 25.375 10.5 19.25 50.1667 19.25 50.1667 42.5833 10.5 42.5833 10.5 36.4583 7 32.9583 7 46.0833 53.6667 46.0833 53.6667 9.91667 7 9.91667ZM13.4167 15.75C12.775 15.75 12.25 15.225 12.25 14.5833 12.25 13.9417 12.775 13.4167 13.4167 13.4167 14.0583 13.4167 14.5833 13.9417 14.5833 14.5833 14.5833 15.225 14.0583 15.75 13.4167 15.75ZM17.5 15.75C16.8583 15.75 16.3333 15.225 16.3333 14.5833 16.3333 13.9417 16.8583 13.4167 17.5 13.4167 18.1417 13.4167 18.6667 13.9417 18.6667 14.5833 18.6667 15.225 18.1417 15.75 17.5 15.75ZM21.5833 15.75C20.9417 15.75 20.4167 15.225 20.4167 14.5833 20.4167 13.9417 20.9417 13.4167 21.5833 13.4167 22.225 13.4167 22.75 13.9417 22.75 14.5833 22.75 15.225 22.225 15.75 21.5833 15.75Z" fill="#FFFFFF" fill-rule="nonzero" fill-opacity="1" transform="matrix(1 0 0 1.01786 276 72)"/></g></svg>