<svg width="56" height="43" xmlns="http://www.w3.org/2000/svg" xmlns:xlink="http://www.w3.org/1999/xlink" xml:space="preserve" overflow="hidden"><defs><clipPath id="clip0"><rect x="52" y="406" width="56" height="43"/></clipPath><clipPath id="clip1"><rect x="52" y="407" width="56" height="42"/></clipPath><clipPath id="clip2"><rect x="52" y="407" width="56" height="42"/></clipPath><clipPath id="clip3"><rect x="52" y="407" width="56" height="42"/></clipPath></defs><g clip-path="url(#clip0)" transform="translate(-52 -406)"><g clip-path="url(#clip1)"><g clip-path="url(#clip2)"><g clip-path="url(#clip3)"><path d="M8.75 17.5 33.25 17.5 33.25 19.25 8.75 19.25Z" fill="#FFFFFF" fill-rule="nonzero" fill-opacity="1" transform="matrix(1.33333 0 0 1 52 407)"/><path d="M8.75 21 33.25 21 33.25 22.75 8.75 22.75Z" fill="#FFFFFF" fill-rule="nonzero" fill-opacity="1" transform="matrix(1.33333 0 0 1 52 407)"/><path d="M27.5625 32.375 27.5625 37.625 33.25 37.625 33.25 32.375ZM29.75 34.125 28.4375 34.125 28.4375 33.25 29.75 33.25Z" fill="#FFFFFF" fill-rule="nonzero" fill-opacity="1" transform="matrix(1.33333 0 0 1 52 407)"/><path d="M21 32.375 21 37.625 26.6875 37.625 26.6875 32.375ZM23.1875 34.125 21.875 34.125 21.875 33.25 23.1875 33.25Z" fill="#FFFFFF" fill-rule="nonzero" fill-opacity="1" transform="matrix(1.33333 0 0 1 52 407)"/><path d="M27.5625 26.25 27.5625 31.5 33.25 31.5 33.25 26.25ZM29.75 28 28.4375 28 28.4375 27.125 29.75 27.125Z" fill="#FFFFFF" fill-rule="nonzero" fill-opacity="1" transform="matrix(1.33333 0 0 1 52 407)"/><path d="M21 26.25 21 31.5 26.6875 31.5 26.6875 26.25ZM23.1875 28 21.875 28 21.875 27.125 23.1875 27.125Z" fill="#FFFFFF" fill-rule="nonzero" fill-opacity="1" transform="matrix(1.33333 0 0 1 52 407)"/><path d="M14.4375 32.375 14.4375 37.625 20.125 37.625 20.125 32.375ZM16.625 34.125 15.3125 34.125 15.3125 33.25 16.625 33.25Z" fill="#FFFFFF" fill-rule="nonzero" fill-opacity="1" transform="matrix(1.33333 0 0 1 52 407)"/><path d="M37.625 37.625 37.625 11.6331 21 4.8125 4.375 11.6331 4.375 37.625 7 37.625 7 15.75 35 15.75 35 37.625 37.625 37.625Z" fill="#FFFFFF" fill-rule="nonzero" fill-opacity="1" transform="matrix(1.33333 0 0 1 52 407)"/></g></g></g></g></svg>