<svg width="58" height="57" xmlns="http://www.w3.org/2000/svg" xmlns:xlink="http://www.w3.org/1999/xlink" xml:space="preserve" overflow="hidden"><defs><clipPath id="clip0"><rect x="1100" y="69" width="58" height="57"/></clipPath><clipPath id="clip1"><rect x="1101" y="70" width="57" height="56"/></clipPath><clipPath id="clip2"><rect x="1101" y="70" width="57" height="56"/></clipPath><clipPath id="clip3"><rect x="1101" y="70" width="57" height="56"/></clipPath></defs><g clip-path="url(#clip0)" transform="translate(-1100 -69)"><g clip-path="url(#clip1)"><g clip-path="url(#clip2)"><g clip-path="url(#clip3)"><path d="M38.5 36.4583 38.4417 48.125 17.6167 48.125 17.5 36.4583 38.5 36.4583ZM14.1167 51.625 41.8833 51.625 41.9417 32.9583 14 32.9583 14.1167 51.625Z" fill="#FFFFFF" fill-rule="nonzero" fill-opacity="1" transform="matrix(1.01786 0 0 1 1101 70)"/><path d="M22.1667 38.7917 33.8333 38.7917 33.8333 41.125 22.1667 41.125Z" fill="#FFFFFF" fill-rule="nonzero" fill-opacity="1" transform="matrix(1.01786 0 0 1 1101 70)"/><path d="M22.1667 43.4583 33.8333 43.4583 33.8333 45.7917 22.1667 45.7917Z" fill="#FFFFFF" fill-rule="nonzero" fill-opacity="1" transform="matrix(1.01786 0 0 1 1101 70)"/><path d="M38.5 21.5833 17.5 21.5833 17.5 8.16667 30.3333 8.16667 30.3333 16.3333 38.5 16.3333 38.5 21.5833ZM33.8333 8.4 37.8583 12.8333 33.8333 12.8333 33.8333 8.4ZM8.16667 24.5C6.88333 24.5 5.83333 23.45 5.83333 22.1667 5.83333 20.8833 6.88333 19.8333 8.16667 19.8333 9.45 19.8333 10.5 20.8833 10.5 22.1667 10.5 23.45 9.45 24.5 8.16667 24.5ZM51.3333 16.3333 42 16.3333 42 12.1333 35.175 4.66667 14 4.66667 14 16.3333 4.66667 16.3333C3.38333 16.3333 2.33333 17.3833 2.33333 18.6667L2.33333 42C2.33333 43.2833 3.38333 44.3333 4.66667 44.3333L11.6667 44.3333 11.6667 30.9167 44.3333 30.9167 44.3333 44.3333 51.3333 44.3333C52.6167 44.3333 53.6667 43.2833 53.6667 42L53.6667 18.6667C53.6667 17.3833 52.6167 16.3333 51.3333 16.3333Z" fill="#FFFFFF" fill-rule="nonzero" fill-opacity="1" transform="matrix(1.01786 0 0 1 1101 70)"/></g></g></g></g></svg>