<svg width="59" height="48" xmlns="http://www.w3.org/2000/svg" xmlns:xlink="http://www.w3.org/1999/xlink" xml:space="preserve" overflow="hidden"><defs><clipPath id="clip0"><rect x="681" y="73" width="59" height="48"/></clipPath><clipPath id="clip1"><rect x="682" y="74" width="57" height="47"/></clipPath><clipPath id="clip2"><rect x="682" y="74" width="57" height="47"/></clipPath><clipPath id="clip3"><rect x="682" y="74" width="57" height="47"/></clipPath></defs><g clip-path="url(#clip0)" transform="translate(-681 -73)"><g clip-path="url(#clip1)"><g clip-path="url(#clip2)"><g clip-path="url(#clip3)"><path d="M19.3385 20.7583 20.7094 19.3875C20.024 18.6531 19.5833 17.674 19.5833 16.5969 19.5833 15.5198 20.024 14.5406 20.7094 13.8063L19.3385 12.4354C18.2615 13.5125 17.625 14.9813 17.625 16.5969 17.625 18.2125 18.2615 19.6813 19.3385 20.7583Z" fill="#FFFFFF" fill-rule="nonzero" fill-opacity="1" transform="matrix(1.21277 0 0 1 682 74)"/><path d="M16.5969 23.5 17.9677 22.1292C16.5479 20.7094 15.6667 18.751 15.6667 16.5969 15.6667 14.4427 16.5479 12.4844 17.9677 11.0646L16.5969 9.69375C14.7854 11.4563 13.7083 13.9042 13.7083 16.5969 13.7083 19.2896 14.7854 21.7375 16.5969 23.5Z" fill="#FFFFFF" fill-rule="nonzero" fill-opacity="1" transform="matrix(1.21277 0 0 1 682 74)"/><path d="M15.1771 24.9198C13.0719 22.8146 11.75 19.8771 11.75 16.5969 11.75 13.3167 13.0719 10.4281 15.1771 8.27396L13.8063 6.90313C11.3094 9.4 9.79167 12.8271 9.79167 16.5969 9.79167 20.3667 11.3094 23.7937 13.8063 26.2906L15.1771 24.9198Z" fill="#FFFFFF" fill-rule="nonzero" fill-opacity="1" transform="matrix(1.21277 0 0 1 682 74)"/><path d="M27.6615 20.7583C28.7385 19.6813 29.375 18.2125 29.375 16.5969 29.375 14.9813 28.7385 13.5125 27.6615 12.4354L26.2906 13.8063C26.976 14.4917 27.4167 15.4708 27.4167 16.5969 27.4167 17.7229 26.976 18.6531 26.2906 19.3875L27.6615 20.7583Z" fill="#FFFFFF" fill-rule="nonzero" fill-opacity="1" transform="matrix(1.21277 0 0 1 682 74)"/><path d="M29.0323 22.1292 30.4031 23.5C32.2146 21.7375 33.2917 19.2896 33.2917 16.5969 33.2917 13.9042 32.2146 11.4563 30.4031 9.69375L29.0323 11.0646C30.4521 12.4844 31.3333 14.4427 31.3333 16.5969 31.3333 18.751 30.4521 20.7094 29.0323 22.1292Z" fill="#FFFFFF" fill-rule="nonzero" fill-opacity="1" transform="matrix(1.21277 0 0 1 682 74)"/><path d="M31.8229 24.9198 33.1938 26.2906C35.6906 23.7937 37.2083 20.3667 37.2083 16.5969 37.2083 12.8271 35.6906 9.4 33.1938 6.90313L31.8229 8.27396C33.9281 10.3792 35.25 13.3167 35.25 16.5969 35.25 19.8771 33.9281 22.7656 31.8229 24.9198Z" fill="#FFFFFF" fill-rule="nonzero" fill-opacity="1" transform="matrix(1.21277 0 0 1 682 74)"/><path d="M36.2292 36.1802C35.6906 36.1802 35.25 35.7396 35.25 35.201 35.25 34.6625 35.6906 34.2219 36.2292 34.2219 36.7677 34.2219 37.2083 34.6625 37.2083 35.201 37.2083 35.7396 36.7677 36.1802 36.2292 36.1802ZM31.3333 36.1802C30.7948 36.1802 30.3542 35.7396 30.3542 35.201 30.3542 34.6625 30.7948 34.2219 31.3333 34.2219 31.8719 34.2219 32.3125 34.6625 32.3125 35.201 32.3125 35.7396 31.8719 36.1802 31.3333 36.1802ZM26.4375 36.1802C25.899 36.1802 25.4583 35.7396 25.4583 35.201 25.4583 34.6625 25.899 34.2219 26.4375 34.2219 26.976 34.2219 27.4167 34.6625 27.4167 35.201 27.4167 35.7396 26.976 36.1802 26.4375 36.1802ZM21.5417 36.1802C21.0031 36.1802 20.5625 35.7396 20.5625 35.201 20.5625 34.6625 21.0031 34.2219 21.5417 34.2219 22.0802 34.2219 22.5208 34.6625 22.5208 35.201 22.5208 35.7396 22.0802 36.1802 21.5417 36.1802ZM11.75 37.1594C10.6729 37.1594 9.79167 36.2781 9.79167 35.201 9.79167 34.124 10.6729 33.2427 11.75 33.2427 12.8271 33.2427 13.7083 34.124 13.7083 35.201 13.7083 36.2781 12.8271 37.1594 11.75 37.1594ZM38.1875 30.3052 24.4792 30.3052 24.4792 18.2615C25.0667 17.9187 25.4583 17.2823 25.4583 16.5969 25.4583 15.5198 24.5771 14.6385 23.5 14.6385 22.4229 14.6385 21.5417 15.5198 21.5417 16.5969 21.5417 17.3313 21.9333 17.9677 22.5208 18.2615L22.5208 30.3052 8.8125 30.3052C7.73542 30.3052 6.85417 31.1865 6.85417 32.2635L6.85417 38.1385C6.85417 39.2156 7.73542 40.0969 8.8125 40.0969L38.1875 40.0969C39.2646 40.0969 40.1458 39.2156 40.1458 38.1385L40.1458 32.2635C40.1458 31.1865 39.2646 30.3052 38.1875 30.3052Z" fill="#FFFFFF" fill-rule="nonzero" fill-opacity="1" transform="matrix(1.21277 0 0 1 682 74)"/></g></g></g></g></svg>